<svg width="30" height="30" viewBox="0 0 30 30" fill="none" xmlns="http://www.w3.org/2000/svg">
<path d="M25.7812 4.35254H4.21875C3.7002 4.35254 3.28125 4.77148 3.28125 5.29004V26.8525C3.28125 27.3711 3.7002 27.79 4.21875 27.79H25.7812C26.2998 27.79 26.7188 27.3711 26.7188 26.8525V5.29004C26.7188 4.77148 26.2998 4.35254 25.7812 4.35254ZM24.8438 25.915H19.4502V18.7139H22.4971L22.9541 15.1777H19.4502V12.9189C19.4502 11.8936 19.7344 11.1963 21.2021 11.1963H23.0742V8.03223C22.749 7.98828 21.6387 7.8916 20.3438 7.8916C17.6426 7.8916 15.7939 9.54102 15.7939 12.5674V15.1748H12.7412V18.7109H15.7969V25.915H5.15625V6.22754H24.8438V25.915Z" fill="#F9F6F2"/>
</svg>
