<svg width="28" height="28" viewBox="0 0 28 28" fill="none" xmlns="http://www.w3.org/2000/svg">
<path fill-rule="evenodd" clip-rule="evenodd" d="M13.9998 8.1665C10.7782 8.1665 8.1665 10.7782 8.1665 13.9998C8.1665 17.2215 10.7782 19.8332 13.9998 19.8332C17.2215 19.8332 19.8332 17.2215 19.8332 13.9998C19.8332 10.7782 17.2215 8.1665 13.9998 8.1665ZM10.4998 13.9998C10.4998 15.9329 12.0668 17.4998 13.9998 17.4998C15.9329 17.4998 17.4998 15.9329 17.4998 13.9998C17.4998 12.0668 15.9329 10.4998 13.9998 10.4998C12.0668 10.4998 10.4998 12.0668 10.4998 13.9998Z" fill="#F9F6F2"/>
<path d="M21.0002 5.8335C20.3558 5.8335 19.8335 6.35584 19.8335 7.00016C19.8335 7.64449 20.3558 8.16683 21.0002 8.16683C21.6445 8.16683 22.1668 7.64449 22.1668 7.00016C22.1668 6.35584 21.6445 5.8335 21.0002 5.8335Z" fill="#F9F6F2"/>
<path fill-rule="evenodd" clip-rule="evenodd" d="M5.83317 1.1665C3.25584 1.1665 1.1665 3.25584 1.1665 5.83317V22.1665C1.1665 24.7438 3.25584 26.8332 5.83317 26.8332H22.1665C24.7438 26.8332 26.8332 24.7438 26.8332 22.1665V5.83317C26.8332 3.25584 24.7438 1.1665 22.1665 1.1665H5.83317ZM22.1665 3.49984H5.83317C4.54451 3.49984 3.49984 4.54451 3.49984 5.83317V22.1665C3.49984 23.4552 4.54451 24.4998 5.83317 24.4998H22.1665C23.4552 24.4998 24.4998 23.4552 24.4998 22.1665V5.83317C24.4998 4.54451 23.4552 3.49984 22.1665 3.49984Z" fill="#F9F6F2"/>
</svg>
