<svg width="44" height="43" viewBox="0 0 44 43" fill="none" xmlns="http://www.w3.org/2000/svg">
<path d="M24.3497 0.636353V3.52901C27.2789 3.52901 30.0231 4.25217 32.5823 5.6985C35.0181 7.1147 36.9606 9.013 38.4098 11.3934C39.8898 13.8944 40.6298 16.5761 40.6298 19.4386H43.5898C43.5898 16.0337 42.7111 12.8699 40.9536 9.94709C39.2577 7.1147 36.9606 4.86987 34.0623 3.21262C31.0714 1.49511 27.8339 0.636353 24.3497 0.636353ZM9.04081 4.97534C8.20831 4.97534 7.48372 5.23146 6.86705 5.7437L2.10326 10.4895L2.24201 10.3991C1.47117 11.0318 0.962416 11.8153 0.715748 12.7493C0.499912 13.6834 0.56158 14.5874 0.900749 15.4612C1.76409 17.8115 2.92035 20.222 4.36953 22.6928C6.40454 26.0977 8.82498 29.1561 11.6308 31.868C16.1325 36.2974 21.7288 39.7927 28.4197 42.3539H28.466C29.3601 42.6552 30.2543 42.7154 31.1485 42.5347C32.0735 42.3539 32.8906 41.9622 33.5998 41.3595L38.2711 36.7945C38.8877 36.1919 39.1961 35.4537 39.1961 34.5799C39.1961 33.6759 38.8877 32.9226 38.2711 32.32L32.2123 26.3539C31.5956 25.7512 30.8247 25.4499 29.8997 25.4499C28.9747 25.4499 28.2039 25.7512 27.5872 26.3539L24.6734 29.2465C22.3301 28.1618 20.2951 26.8209 18.5684 25.2239C16.8417 23.5968 15.4696 21.6232 14.4521 19.303L17.4121 16.4104C18.0596 15.7475 18.3834 14.964 18.3834 14.0601C18.3834 13.126 18.0134 12.3727 17.2734 11.8002L17.4121 11.9358L11.2146 5.7437C10.5979 5.23146 9.87332 4.97534 9.04081 4.97534ZM24.3497 6.42166V9.31432C26.2305 9.31432 27.9572 9.7663 29.5297 10.6703C31.1331 11.5742 32.3973 12.8096 33.3223 14.3765C34.2473 15.9132 34.7098 17.6006 34.7098 19.4386H37.6698C37.6698 17.0883 37.0685 14.9038 35.866 12.8849C34.6635 10.9264 33.0602 9.35952 31.056 8.18438C28.9901 7.00923 26.7547 6.42166 24.3497 6.42166ZM9.04081 7.86799C9.13332 7.86799 9.24123 7.91319 9.36457 8.00358L15.4234 14.0601C15.4542 14.1806 15.4234 14.2861 15.3309 14.3765L10.9371 18.6251L11.2608 19.529L11.8621 20.7945C12.3554 21.819 12.9258 22.8134 13.5734 23.7776C14.4675 25.1335 15.4542 26.2936 16.5334 27.2578C17.9826 28.6439 19.7247 29.9094 21.7597 31.0544C22.7772 31.6269 23.6405 32.0488 24.3497 32.32L25.2747 32.7267L29.761 28.3426C29.8226 28.2823 29.8689 28.2522 29.8997 28.2522C29.9306 28.2522 29.9768 28.2823 30.0385 28.3426L36.2823 34.4443C36.344 34.5045 36.3748 34.5497 36.3748 34.5799C36.3748 34.5799 36.344 34.61 36.2823 34.6703L31.6572 39.1448C30.9789 39.7173 30.2389 39.868 29.4372 39.5968C23.1472 37.2164 17.9055 33.9622 13.7121 29.8341C11.1221 27.303 8.85581 24.4254 6.9133 21.2013C5.52579 18.8812 4.44661 16.6364 3.67577 14.4669V14.4217C3.55244 14.1505 3.53702 13.8341 3.62952 13.4725C3.72202 13.0808 3.89161 12.7795 4.13828 12.5686L8.71706 8.00358C8.80956 7.91319 8.91748 7.86799 9.04081 7.86799ZM24.3497 12.207V15.0996C25.583 15.0996 26.6314 15.5215 27.4947 16.3652C28.3581 17.2089 28.7897 18.2333 28.7897 19.4386H31.7497C31.7497 18.1429 31.4106 16.9377 30.7322 15.8228C30.0847 14.7079 29.1906 13.8341 28.0497 13.2013C26.9089 12.5384 25.6755 12.207 24.3497 12.207Z" fill="#3D3D3C"/>
</svg>
